<?xml version="1.0" standalone="no"?>
<!DOCTYPE svg PUBLIC "-//W3C//DTD SVG 20010904//EN"
 "http://www.w3.org/TR/2001/REC-SVG-20010904/DTD/svg10.dtd">
<svg version="1.0" xmlns="http://www.w3.org/2000/svg"
 width="1024.000000pt" height="1024.000000pt" viewBox="0 0 1024.000000 1024.000000"
 preserveAspectRatio="xMidYMid meet">

<g transform="translate(0.000000,1024.000000) scale(0.100000,-0.100000)"
fill="#000000" stroke="none">
<path d="M2485 9114 c-16 -2 -79 -9 -140 -15 -392 -38 -758 -229 -968 -504
-74 -98 -173 -289 -206 -398 -28 -93 -57 -264 -72 -422 -8 -96 -12 -812 -13
-2720 -1 -2460 0 -2596 17 -2705 38 -241 98 -419 192 -579 168 -281 386 -460
697 -570 92 -32 196 -54 338 -71 56 -6 1031 -10 2820 -11 2475 0 2744 1 2825
16 313 56 543 169 757 374 117 112 196 216 267 352 64 123 94 213 128 389 l28
145 0 2720 c0 3023 5 2807 -66 3047 -38 132 -140 341 -216 443 -179 241 -484
415 -854 487 l-114 22 -2695 2 c-1482 0 -2708 0 -2725 -2z m5211 -3279 c74
-31 83 -146 15 -192 -58 -39 -174 -24 -200 25 -16 30 -13 98 4 132 24 46 113
64 181 35z m-1681 -10 c197 -52 346 -212 390 -420 20 -95 19 -287 -1 -378 -16
-72 -62 -176 -92 -210 -15 -17 -11 -23 56 -90 l72 -73 -57 -49 c-104 -90 -87
-90 -162 -7 l-67 73 -44 -20 c-132 -58 -331 -65 -475 -16 -164 55 -255 146
-312 312 -35 104 -45 325 -19 453 19 94 67 195 121 258 65 75 187 146 294 171
61 15 232 12 296 -4z m-3626 -137 c28 -79 125 -349 214 -600 l164 -458 -118 0
-117 0 -11 33 c-5 17 -24 78 -41 135 l-32 102 -233 0 -234 0 -36 -117 c-20
-65 -39 -126 -41 -135 -4 -14 -22 -17 -120 -20 -98 -3 -114 -1 -111 12 2 8 97
275 211 593 113 317 206 582 206 587 0 6 48 10 124 10 l123 0 52 -142z m5731
-466 l0 -597 -105 0 -105 0 0 600 0 600 105 -3 105 -3 0 -597z m403 6 c-2
-326 -5 -594 -8 -595 -3 -2 -50 -3 -105 -3 l-100 0 0 595 0 595 108 0 107 0
-2 -592z m-4473 387 l0 -125 106 0 107 0 -7 -31 c-3 -17 -6 -56 -6 -85 l0 -54
-100 0 -100 0 0 -245 0 -246 26 -26 c23 -23 31 -25 82 -21 31 3 64 8 72 12 12
5 20 -11 37 -75 l21 -80 -27 -11 c-14 -5 -56 -15 -93 -21 -55 -8 -78 -7 -135
7 -82 20 -129 55 -163 122 -25 48 -25 54 -28 317 l-4 267 -75 0 -76 0 7 46 c3
26 6 64 6 85 l0 39 70 0 70 0 0 125 0 125 105 0 105 0 0 -125z m813 -120 c205
-43 307 -189 307 -440 0 -318 -172 -475 -483 -443 -123 13 -227 78 -281 177
-74 137 -74 395 0 532 81 147 261 216 457 174z m-1821 -307 c3 -276 5 -306 22
-334 27 -44 70 -67 130 -67 67 -1 121 26 154 76 l27 40 3 294 3 293 100 0 99
0 0 -432 0 -433 -95 3 -95 3 0 40 0 41 -32 -33 c-53 -52 -110 -73 -208 -73
-74 -1 -93 3 -142 27 -67 33 -120 90 -144 156 -15 39 -18 92 -22 374 l-3 327
100 0 100 0 3 -302z m3738 12 c0 -223 3 -298 14 -323 41 -99 178 -124 267 -50
56 48 59 64 59 378 l0 285 100 0 100 0 0 -432 0 -433 -95 0 -95 0 0 39 0 40
-27 -27 c-123 -117 -369 -91 -465 48 -51 74 -58 129 -58 462 l0 303 100 0 100
0 0 -290z m940 -142 l0 -433 -100 0 -100 0 0 433 0 432 100 0 100 0 0 -432z"/>
<path d="M5793 5639 c-193 -33 -293 -177 -293 -420 0 -212 58 -338 178 -392
65 -28 164 -39 236 -26 105 19 105 18 7 114 l-86 86 64 58 64 59 84 -82 c47
-44 88 -82 92 -84 10 -3 41 63 57 123 29 108 11 302 -37 396 -63 124 -215 194
-366 168z"/>
<path d="M2198 5529 c-32 -92 -147 -415 -153 -431 -7 -17 5 -18 170 -18 165 0
177 1 170 18 -3 9 -40 114 -82 232 -41 118 -79 221 -83 229 -5 9 -12 0 -22
-30z"/>
<path d="M4673 5311 c-85 -39 -131 -147 -120 -287 12 -156 83 -234 212 -234
65 0 100 16 142 64 48 54 66 122 61 230 -5 97 -24 150 -70 193 -57 53 -151 67
-225 34z"/>
</g>
</svg>
